<svg width="82" height="46" viewBox="0 0 82 46" fill="none" xmlns="http://www.w3.org/2000/svg">
<circle cx="59" cy="23" r="23" fill="white"/>
<circle cx="59" cy="23" r="20" fill="#FD6687"/>
<path d="M66.0833 14.4167V17.4167H61.0833V14.4167H66.0833Z" fill="white"/>
<path d="M56.9167 14.4167V17.4167H51.9167V14.4167H56.9167Z" fill="white"/>
<path d="M69 20.25V23.25H49V20.25H69Z" fill="white"/>
<circle cx="23" cy="23" r="23" fill="white"/>
<circle cx="23" cy="23" r="20" fill="#FD6687"/>
<path d="M35.25 21.2084C35.25 27.5596 30.1013 32.7084 23.75 32.7084C17.3987 32.7084 12.25 27.5596 12.25 21.2084H15.25C15.25 25.9028 19.0556 29.7084 23.75 29.7084C28.4444 29.7084 32.25 25.9028 32.25 21.2084H35.25Z" fill="white"/>
<path d="M20.5417 14.6667V19.6537H17.5417V14.6667H20.5417Z" fill="white"/>
<path d="M28.875 14.6667V19.6537H25.875V14.6667H28.875Z" fill="white"/>
</svg>
