<svg width="82" height="46" viewBox="0 0 82 46" fill="none" xmlns="http://www.w3.org/2000/svg">
<g id="player-vs-player">
<circle id="Oval Copy 17" cx="59" cy="23" r="23" fill="black"/>
<circle id="Oval Copy 11" cx="59" cy="23" r="20" fill="#FFCE67"/>
<g id="Group 8">
<path id="Oval Copy 11_2" d="M74.5834 21.208C74.5834 27.5593 69.4346 32.708 63.0834 32.708C56.7321 32.708 51.5834 27.5593 51.5834 21.208H54.5834C54.5834 25.9024 58.389 29.708 63.0834 29.708C67.7778 29.708 71.5834 25.9024 71.5834 21.208H74.5834Z" fill="black"/>
<g id="Group 7">
<path id="Path" d="M62.375 14.6665V19.6535H59.375V14.6665H62.375Z" fill="black"/>
<path id="Path Copy" d="M70.7084 14.6665V19.6535H67.7084V14.6665H70.7084Z" fill="black"/>
</g>
</g>
<circle id="Oval Copy 18" cx="23" cy="23" r="23" fill="black"/>
<g id="Group 2">
<circle id="Oval Copy 11_3" cx="23" cy="23" r="20" fill="#FFCE67"/>
<g id="Group 8_2">
<path id="Oval Copy 11_4" d="M38.5834 21.208C38.5834 27.5593 33.4346 32.708 27.0834 32.708C20.7321 32.708 15.5834 27.5593 15.5834 21.208H18.5834C18.5834 25.9024 22.389 29.708 27.0834 29.708C31.7778 29.708 35.5834 25.9024 35.5834 21.208H38.5834Z" fill="black"/>
<g id="Group 7_2">
<path id="Path_2" d="M26.375 14.6665V19.6535H23.375V14.6665H26.375Z" fill="black"/>
<path id="Path Copy_2" d="M34.7084 14.6665V19.6535H31.7084V14.6665H34.7084Z" fill="black"/>
</g>
</g>
</g>
</g>
</svg>
